<svg version="1" xmlns="http://www.w3.org/2000/svg" width="933.333" height="933.333" viewBox="0 0 700.000000 700.000000"><path d="M349.2 5.3c-.1 1.3-.9 7.1-1.7 12.8-.9 5.7-1.8 11.7-2 13.4-.2 1.6-.7 5-1 7.5-.4 2.5-.9 6.1-1.1 8-.3 1.9-.7 4.6-.9 6-.3 1.4-.7 4.5-1 7-.3 2.5-1 7.2-1.5 10.5s-1.2 7.8-1.4 10c-.6 5-1.4 10.4-2.6 17.5-.5 3-1.2 7.9-1.5 10.9-.4 3-.8 6.1-1 7-.1.9-.6 3.8-.9 6.6-.4 2.7-1.1 7.9-1.7 11.5-.6 3.6-1.2 8.3-1.5 10.5-.2 2.2-.6 4.9-.8 6.1-.2 1.2-.7 4.5-1.1 7.4-.4 2.9-.8 6-1 6.9-.7 3.7-1.9 13.6-1.7 14.3.1.5 0 .8-.3.8-.5 0-13.5-26.6-13.5-27.5 0-.1-3.1-6.7-6.9-14.6-3.7-7.9-8-16.9-9.4-19.9-1.4-3-4.8-10.5-7.7-16.5-2.9-6.1-6.7-14.2-8.5-18-32.5-69.2-32-68.1-31.1-62.8.3 1.8 1.9 12.2 3.6 23 1.7 10.9 3.2 20.9 3.5 22.3.2 1.4 1.3 8.1 2.4 15 1.1 6.9 2.2 14.3 2.6 16.5.3 2.2.7 4.7 1 5.5.2.8.6 3.7 1 6.5.3 2.7.8 5.9 1 7 .3 1.1.7 3.6.9 5.5 1 6.7 5.3 34.2 8.2 51.7.9 5.4 1.7 10.7 1.9 11.8.1 1.1.6 3.8 1 6l.7 4-5.4-5.6c-2.9-3.1-9.3-10.1-14.3-15.5-16.6-18.2-19-20.8-21-22.9-1.1-1.2-4-4.4-6.4-7.1-2.4-2.7-8.2-9.1-13-14.3-4.7-5.2-9.4-10.3-10.3-11.3-.9-1.1-5.4-6-9.9-10.9-9.1-9.9-8.7-9.4-20.9-22.9-12.8-14.2-21-23-21-22.5 0 .2 2.4 5.2 5.4 11.2 3 5.9 9.9 20 15.4 31.3s18 36.9 27.9 57c27.2 55.3 30.1 61.5 29.7 61.9-.3.3-4.8-2.2-11.9-6.7-1.1-.7-2.8-1.5-3.7-1.8-1-.4-1.8-1-1.8-1.5s-.4-.9-.9-.9c-.8 0-22.3-12.5-62.5-36.4-7-4.2-13-7.6-13.2-7.6-.2 0-2.8-1.5-5.7-3.4-2.8-1.8-14.6-8.9-26.2-15.6-11.6-6.7-22.5-13.2-24.4-14.3-1.9-1.1-3.2-1.6-3-1 .2.6 6.5 7.5 14 15.4s15.1 16 16.9 17.9c1.8 1.9 8.5 9.1 15 16s13.2 14.1 15 16c1.8 1.9 6.7 7.1 10.9 11.5 4.2 4.5 13.7 14.6 21.1 22.5 7.4 7.9 17 18 21.2 22.4 4.2 4.5 7.5 8.2 7.4 8.4-.3.3-6.2-1.1-40.6-9.3-20.7-4.9-32.3-7.7-34-8-2.6-.6-29.9-7.1-48-11.5-9.6-2.3-18.2-4.3-19-4.5-.8-.2-7.6-1.7-15-3.5s-14.6-3.4-16-3.6c-2.1-.4 11.6 7.7 47.5 28 2.2 1.3 15.7 9 30 17.1 14.3 8.1 28 15.9 30.5 17.3 15 8.4 44.6 25.5 45.3 26.1.5.5-2.2.9-6 1-3.7.1-8.4.4-10.3.6-1.9.2-8.1.6-13.7.9-5.7.4-12.2.9-14.5 1.1-4 .3-19.7 1.4-29.8 2-2.5.2-9 .6-14.5 1-13.1.9-18.9 1.3-31 2-5.5.3-11.8.7-14 .9-2.2.2-9.4.7-16 1.1-6.6.4-13.1.9-14.5 1-1.4.2-4.9.4-7.7.4-2.9.1-5.3.5-5.3.9 0 .5.6.9 1.3.9.6 0 13.6 2.8 28.7 6.2 15.1 3.3 28.4 6.3 29.5 6.5 4.2.9 21.4 4.7 29.5 6.5 4.7 1.1 9.6 2.2 11 2.4 1.4.3 18 3.9 36.9 8.1 30.4 6.8 40.6 9.5 36.3 9.6-1 0-44.1 16.2-54.7 20.5-1.1.4-4 1.6-6.5 2.5-2.5.9-15.3 5.8-28.5 10.9-13.2 5.1-27.8 10.7-32.5 12.5-4.7 1.8-14.1 5.4-21 8.1-24.7 9.4-24.9 9.5-17 8.9 3.6-.2 9-.6 12-.9 3-.3 8.4-.7 12-1 3.6-.3 9.7-.8 13.5-1.1 3.9-.3 9.3-.7 12-.9 2.8-.2 8.2-.7 12-1 3.9-.3 9-.8 11.5-1 2.5-.2 7.4-.6 11-1 3.6-.3 9.2-.7 12.5-1 6-.4 19.4-1.5 25-2 1.7-.2 7.3-.6 12.5-1 5.2-.3 10.6-.8 12-1 1.4-.2 6.6-.7 11.5-1 5-.4 10.5-.8 12.3-1l3.3-.3-3.3 2.9c-1.8 1.5-3.6 2.8-3.9 2.9-.3 0-1.6.9-2.8 1.9-3.5 3.1-8 6.6-36.1 28.7-14.6 11.5-27 21.3-27.7 21.9-.6.5-2.4 2-4 3.1-2.6 2-37 29-40.3 31.7-.8.7-3.5 2.8-6 4.7-2.5 1.9-4.7 3.7-5 4-.3.3-3.4 2.7-6.8 5.3-3.5 2.6-6 4.7-5.6 4.7.7 0 46.9-18.4 53.9-21.5 1.7-.7 9.5-3.9 17.5-7s15.9-6.2 17.5-7c1.7-.7 10.9-4.4 20.5-8.3 9.6-3.9 24.9-10 34-13.7 9.1-3.7 18.2-7.3 20.3-8.1l3.7-1.3-3.2 4.6c-4.1 5.8-12.9 18.5-37.8 54.5-10.7 15.5-23.4 33.8-28.2 40.7-4.8 7-12.1 17.5-16.2 23.6-4.2 6-9.9 14.4-12.8 18.5-2.8 4.1-4.3 6.8-3.3 6 1.1-.8 2.9-2.3 4-3.2 1.1-.9 18.2-14.8 38-30.8 19.8-16.1 37.1-30.2 38.5-31.4 1.4-1.1 4.5-3.7 7-5.6 2.5-1.9 5.4-4.3 6.5-5.2 11.6-9.8 44-35.7 44.3-35.4.4.5.1 1.3-13.3 43.6-5.4 16.8-10.1 31.8-10.5 33.5-.5 1.6-4.9 15.8-10 31.5-5 15.7-11.3 35.7-14.1 44.5-2.8 8.8-5.2 16.7-5.5 17.5-.3.8-.3 1.2-.1 1 .3-.3 19.9-29.5 43.6-65 23.7-35.5 43.5-65.2 44.1-66 .6-.8 3.8-5.6 7.1-10.5l6-9-.7 82.5c-.3 45.4-.6 85.5-.7 89.2 0 3.7.2 7 .5 7.3.4.4 7.3-21.5 9.2-29 .1-.6 1.3-4.4 2.5-8.5 7.9-26.1 32.6-108.6 34.1-114 4.1-14.4 7-21.9 7-17.8 0 .8 2.2 8.8 5 17.9 10.7 35.5 44.2 147.5 44.5 148.9.2.8.4 1.8.4 2.2.1.5.4.8.9.8.4 0 .7-2.6.6-5.8-.1-3.1-.5-43.5-.8-89.7l-.7-84 8.3 12.3c13.3 19.8 16.2 24.2 17.8 26.7 5 8 73.3 109.5 73.7 109.5.3 0 .3-.8 0-1.8-.8-2.9-16.5-52.7-21.3-67.7-6.3-19.7-9.5-29.6-15.4-48.5-2.8-9.1-7.7-24.3-10.7-33.8-3-9.5-5.3-17.5-5-17.8.2-.3 1.1.1 1.8.8.8.7 7.3 6 14.4 11.8 11 8.9 25.6 20.7 39.2 31.9 1.8 1.4 4.6 3.7 6.4 5.1 1.8 1.4 3.7 3 4.3 3.5.6.6 3.1 2.7 5.6 4.6 2.5 2 18.2 14.8 35 28.4 16.8 13.6 31.1 25.3 31.9 25.9 1.3 1-2-4-20.4-30.6-19.8-28.7-48.7-70.5-52.8-76.3-11.6-16.8-21.3-30.8-22.7-32.9-.8-1.3-2.5-3.8-3.8-5.5l-2.4-3.1 5.4 2.1c6.7 2.6 66.9 26.7 80.8 32.4 5.8 2.3 19.7 7.9 31 12.5 11.3 4.5 21.4 8.6 22.5 9.1 2 .9 23.6 9.6 26.5 10.6 1.8.7-.9-1.9-6.5-6.3-3.1-2.4-65.4-51.3-80-62.9-1.6-1.3-7.9-6.2-14-11-6-4.7-11.7-9.2-12.5-9.8-.8-.7-4.7-3.7-8.5-6.7-3.9-3-7.2-5.7-7.5-6-.3-.3-2.9-2.3-5.7-4.5-2.9-2.1-5.3-4.1-5.3-4.3 0-.1 1.7-.1 3.8.2 2 .3 7.5.8 12.2 1.2 4.7.3 9.9.7 11.5.9 1.7.1 7.5.6 13 .9 5.5.4 11.1.9 12.5 1.1 2.5.4 9.5 1 24 2 4.1.4 8.9.8 10.5 1 1.7.2 6.8.7 11.5 1 4.7.3 10.3.8 12.5 1 2.2.2 7.8.7 12.5 1 4.7.4 10.1.8 12 1 1.9.2 7.6.6 12.5 1 5 .3 10.6.8 12.5 1 11.7 1.1 19.2 1.3 16.9.6-1.4-.5-4.1-1.5-6-2.4-7-3.1-157.8-60.7-159-60.7-.8 0-.9-.3-.3-.9.5-.5 9.7-2.7 20.4-5.1 10.7-2.3 23.1-5 27.5-6 9.3-2.1 17.4-3.9 34-7.6 6.6-1.4 15.6-3.4 20-4.4 4.4-1.1 9.1-2.1 10.5-2.4 2.4-.4 20.4-4.3 23.9-5.2.9-.2 3.4-.8 5.6-1.3 2.2-.6 5.5-1.2 7.2-1.6 1.8-.3 6.3-1.2 10-2.1 9.8-2.3 10.1-2.4 12.4-2.9 4.2-.9 3.2-1.5-2.7-1.6-3.2-.1-7-.2-8.4-.4-1.4-.1-7.7-.6-14-1s-13.1-.8-15-1c-1.9-.2-8.9-.6-15.5-1s-14.2-.9-17-1c-2.7-.2-9.5-.7-15-1-5.5-.4-11.8-.8-14-1-2.2-.2-8.5-.6-14-1s-12-.8-14.5-1c-2.5-.2-9.2-.6-15-1-5.8-.3-12-.8-13.8-1-1.9-.3-6.6-.5-10.4-.6-6.8-.2-7-.2-4.9-1.9 1.3-.9 3.9-2.5 5.9-3.6 2-1 10.4-5.8 18.7-10.5 8.2-4.7 17-9.7 19.5-11.1 5.1-2.8 62.6-35.5 91.5-52 10.4-5.9 18.4-10.8 17.8-10.8-.5 0-4.8.9-9.4 2.1-4.6 1.1-9.3 2.3-10.4 2.5-1.1.2-5.6 1.2-10 2.3-4.4 1.1-14.7 3.6-23 5.5-8.2 2-21.7 5.2-30 7.2-8.2 1.9-15.7 3.7-16.5 3.9-.8.2-7.6 1.8-15 3.5-7.4 1.8-14.2 3.3-15 3.5-3.3.7-24.1 5.7-33.9 8.1-5.7 1.4-10.5 2.4-10.6 2.2-.2-.2 3.5-4.4 8.2-9.3 15.2-16 36.3-38.4 52.1-55.4 1.9-2 8.7-9.2 15.1-16.1 6.5-6.9 13.5-14.3 15.5-16.5 2.1-2.2 9.7-10.2 16.9-17.9 7.3-7.6 13.5-14.4 14-15.1.4-.8-3.4 1.1-8.5 4.2s-10.6 6.4-12.3 7.3c-8.5 5-20 11.7-22.3 13.1-1.5.9-13.3 7.8-26.2 15.4-12.9 7.5-25.1 14.7-27 16-3.3 2.1-31.3 18.6-35.5 20.9-1.1.6-6.4 3.8-11.8 7s-10 5.6-10.2 5.4c-.2-.1 7.1-15.3 16.1-33.7 9-18.4 16.4-33.5 16.4-33.6 0-.2 10.4-21.3 23-47 12.7-25.7 23-46.9 23-47.1 0-.2-2.1 2-4.7 4.9-2.7 2.8-5.7 6.1-6.8 7.2-1.1 1.2-5.6 6.2-10 11-4.4 4.9-9 10-10.2 11.3-1.3 1.4-5.8 6.3-10 11-4.3 4.7-8.2 9-8.8 9.6-.5.6-5.9 6.5-12 13.1-6 6.6-11.4 12.5-12 13.1-1.3 1.4-15.5 17.2-17.5 19.4-3.1 3.5-19.7 21.6-24.8 26.9-4.4 4.7-5.2 5.2-4.8 3.1.3-1.4 2.4-14.4 4.6-29 2.2-14.6 4.3-27.2 4.5-28 .2-.8.7-3.9 1-6.9.4-3 .9-6.3 1.1-7.5.2-1.2 1.1-6.4 1.9-11.6.8-5.2 1.7-10.6 1.9-12 .3-1.4.7-4.1 1-6 .3-1.9 1.2-7.8 2-13s1.7-11.3 2.1-13.5c.3-2.2.7-4.7 1-5.5.2-.8.6-3.5.9-6 .4-2.5.8-5.9 1.1-7.5 1-6.2 1.5-9.1 2-13 .3-2.2 1.1-6.6 1.6-9.9.6-3.2.8-6.1.5-6.4-.3-.3-.6-.1-.6.5 0 1.1-5 11.9-16.6 36.1-3.5 7.3-6.4 13.5-6.4 13.6 0 .2-2.9 6.4-6.4 13.7-3.5 7.4-7.5 15.9-8.9 18.9-1.3 3-5.7 12.2-9.6 20.3-3.9 8.2-7.1 15-7.1 15.2 0 .2-2.7 5.9-5.9 12.7-3.2 6.8-7.9 16.7-10.4 22-4.6 9.8-5.6 11.3-5.5 8 .1-1.6-.6-7.2-1.7-13.2-.2-1.4-.7-4.5-1-7-.3-2.5-.8-5.6-1.1-7-.2-1.4-.6-4.5-.9-7-.3-2.5-.7-5.6-.9-7-.3-1.4-.8-4.5-1.1-7-.4-2.5-.8-5.6-1-7-.3-2-4.6-32.9-7-50-.3-1.9-.7-4.9-1-6.5-.3-1.7-.7-4.8-1-7-1.9-13.6-6.5-45.4-6.9-47.5-.2-1.4-.5-4-.5-5.8-.1-3.7-1.6-4.4-1.9-.9z"/></svg>